<svg width="1355" height="2278" viewBox="0 0 1355 2278" fill="none" xmlns="http://www.w3.org/2000/svg">
<path d="M1307 668L745 0L211 538L0 1279L134 1537L431 2076L629 2278L1094 1860L1355 1450L1307 668Z" fill="url(#paint0_linear_9_172)"/>
<path d="M386 991L799 1533L560 1914L143 1397L386 991Z" fill="#2A2D31"/>
<path d="M211 538L386 991L143 1397L0 1279L211 538Z" fill="#404549"/>
<path d="M0 1279L143 1397L134 1537L0 1279Z" fill="#2B2E31"/>
<path d="M816 514L1069 782L799 1533L386 991L816 514Z" fill="#373A3F"/>
<path d="M745 0L1307 668L1069 782L816 514L745 0Z" fill="#272A2D"/>
<path d="M1307 668L1355 1450L799 1533L1069 782L1307 668Z" fill="#1B1D20"/>
<path d="M560 1914L1094 1860L629 2278L560 1914Z" fill="#141618"/>
<path d="M431 2076L560 1914L629 2278L431 2076Z" fill="#17191B"/>
<path d="M143 1397L560 1914L431 2076L134 1537L143 1397Z" fill="#232629"/>
<path d="M799 1533L1355 1450L1094 1860L560 1914L799 1533Z" fill="#17191B"/>
<path d="M745 0L816 514L386 991L211 538L745 0Z" fill="#4B5257"/>
<path opacity="0.25" d="M1307 668L745 0L211 538L0 1279L134 1537L431 2076L629 2278L1094 1860L1355 1450L1307 668Z" fill="black"/>
<defs>
<linearGradient id="paint0_linear_9_172" x1="677.5" y1="1.7727e-08" x2="677" y2="1874" gradientUnits="userSpaceOnUse">
<stop stop-color="#353A3D"/>
<stop offset="1" stop-color="#0E0F11"/>
</linearGradient>
</defs>
</svg>